<svg width="1131" height="2577" viewBox="0 0 1131 2577" fill="none" xmlns="http://www.w3.org/2000/svg">
<g opacity="0.5">
<path d="M15.8425 1641.76C-33.5336 1790.26 50.3584 1961.84 54.7669 2123.84C56.291 2180.21 48.0937 2236.56 60.2614 2292.64C88.0003 2421.09 213.01 2509.14 333.272 2550.63C390.628 2570.43 451.42 2583.49 508.054 2571.83C551.606 2562.87 590.078 2539.91 627.726 2517.18L1287.82 2119.74C1361.51 2075.36 1441.23 2022.54 1459.05 1933.55C1471.35 1872.26 1451.05 1806.32 1430.12 1744.34C1404.4 1668.18 1373.71 1587.17 1310.65 1538.39C1238.56 1482.56 1144.09 1483.95 1062.54 1447.68C930.285 1389.01 837.201 1234.36 698.527 1207.91C633.795 1195.57 570.009 1214.4 512.195 1239.78C403.187 1287.62 324.408 1372.65 223.564 1429.7C137.367 1478.47 49.6387 1540.1 15.8425 1641.76Z" fill="#ED56A8" style="mix-blend-mode:color-dodge"/>
<path d="M365.795 438.352C316.419 586.851 400.311 758.427 404.719 920.424C406.243 976.8 398.046 1033.15 410.214 1089.23C437.952 1217.67 562.963 1305.73 683.224 1347.22C740.581 1367.02 801.372 1380.08 858.006 1368.42C901.558 1359.46 940.03 1336.5 977.678 1313.77L1637.77 916.333C1711.46 871.948 1791.19 819.131 1809 730.142C1821.3 668.847 1801.01 602.905 1780.08 540.925C1754.36 464.765 1723.66 383.759 1660.61 334.98C1588.51 279.144 1494.05 280.533 1412.49 244.273C1280.24 185.597 1187.15 30.9494 1048.48 4.50003C983.747 -7.83824 919.962 10.9854 862.147 36.3699C753.139 84.2072 674.36 169.243 573.517 226.292C487.319 275.062 399.591 336.691 365.795 438.352Z" fill="#ED56A8" style="mix-blend-mode:color-dodge"/>
</g>
</svg>
