<svg width="1440" height="3543" viewBox="0 0 1440 3543" fill="none" xmlns="http://www.w3.org/2000/svg">
<g opacity="0.5">
<path d="M-141.158 443.147C-190.535 591.646 -106.643 763.222 -102.234 925.219C-100.71 981.595 -108.907 1037.94 -96.7397 1094.03C-69.0008 1222.47 56.0093 1310.53 176.271 1352.01C233.627 1371.81 294.419 1384.87 351.053 1373.22C394.605 1364.26 433.076 1341.29 470.725 1318.56L1130.82 921.128C1204.51 876.743 1284.23 823.926 1302.05 734.937C1314.35 673.642 1294.05 607.7 1273.12 545.72C1247.4 469.56 1216.71 388.554 1153.65 339.775C1081.56 283.939 987.092 285.328 905.536 249.068C773.284 190.392 680.2 35.7445 541.526 9.29519C476.794 -3.04306 413.008 15.7805 355.194 41.165C246.186 89.0023 167.407 174.038 66.5633 231.087C-19.6343 279.857 -107.362 341.486 -141.158 443.147Z" fill="#ED56A8" style="mix-blend-mode:color-dodge"/>
</g>
<g opacity="0.5">
<path d="M324.843 2460.76C275.466 2609.26 359.358 2780.84 363.767 2942.84C365.291 2999.21 357.094 3055.56 369.261 3111.64C397 3240.09 522.011 3328.14 642.272 3369.63C699.628 3389.43 760.42 3402.49 817.054 3390.83C860.606 3381.87 899.078 3358.91 936.726 3336.18L1596.82 2938.74C1670.51 2894.36 1750.23 2841.54 1768.05 2752.55C1780.35 2691.26 1760.05 2625.32 1739.12 2563.34C1713.4 2487.18 1682.71 2406.17 1619.65 2357.39C1547.56 2301.56 1453.09 2302.95 1371.54 2266.68C1239.28 2208.01 1146.2 2053.36 1007.53 2026.91C942.795 2014.57 879.009 2033.4 821.195 2058.78C712.187 2106.62 633.408 2191.65 532.564 2248.7C446.367 2297.47 358.639 2359.1 324.843 2460.76Z" fill="#ED56A8" style="mix-blend-mode:color-dodge"/>
<path d="M674.795 1257.35C625.419 1405.85 709.311 1577.43 713.719 1739.42C715.243 1795.8 707.046 1852.15 719.214 1908.23C746.952 2036.67 871.963 2124.73 992.224 2166.22C1049.58 2186.02 1110.37 2199.08 1167.01 2187.42C1210.56 2178.46 1249.03 2155.5 1286.68 2132.77L1946.77 1735.33C2020.46 1690.95 2100.19 1638.13 2118 1549.14C2130.3 1487.85 2110.01 1421.91 2089.08 1359.92C2063.36 1283.77 2032.66 1202.76 1969.61 1153.98C1897.51 1098.14 1803.05 1099.53 1721.49 1063.27C1589.24 1004.6 1496.15 849.949 1357.48 823.5C1292.75 811.162 1228.96 829.985 1171.15 855.37C1062.14 903.207 983.36 988.243 882.517 1045.29C796.319 1094.06 708.591 1155.69 674.795 1257.35Z" fill="#ED56A8" style="mix-blend-mode:color-dodge"/>
</g>
</svg>
