<svg width="1306" height="1373" viewBox="0 0 1306 1373" fill="none" xmlns="http://www.w3.org/2000/svg">
<g opacity="0.5">
<path d="M-141.158 438.147C-190.535 586.646 -106.643 758.222 -102.234 920.219C-100.71 976.595 -108.907 1032.94 -96.7397 1089.03C-69.0008 1217.47 56.0093 1305.53 176.271 1347.01C233.627 1366.81 294.419 1379.87 351.053 1368.22C394.605 1359.26 433.076 1336.29 470.725 1313.56L1130.82 916.128C1204.51 871.743 1284.23 818.926 1302.05 729.937C1314.35 668.642 1294.05 602.7 1273.12 540.72C1247.4 464.56 1216.71 383.554 1153.65 334.775C1081.56 278.939 987.092 280.328 905.536 244.068C773.284 185.392 680.2 30.7445 541.526 4.29519C476.794 -8.04306 413.008 10.7805 355.194 36.165C246.186 84.0023 167.407 169.038 66.5633 226.087C-19.6343 274.857 -107.362 336.486 -141.158 438.147Z" fill="#ED56A8" fill-opacity="0.5" stroke="none" style="mix-blend-mode:color-dodge"/>
</g>
</svg>
