<?xml version="1.0" standalone="no"?>
<!DOCTYPE svg PUBLIC "-//W3C//DTD SVG 20010904//EN"
 "http://www.w3.org/TR/2001/REC-SVG-20010904/DTD/svg10.dtd">
<svg version="1.0" xmlns="http://www.w3.org/2000/svg"
 width="298.000000pt" height="298.000000pt" viewBox="0 0 298.000000 298.000000"
 preserveAspectRatio="xMidYMid meet">
<metadata>
Created by potrace 1.14, written by Peter Selinger 2001-2017
</metadata>
<g transform="translate(0.000000,298.000000) scale(0.100000,-0.100000)"
fill="#000000" stroke="none">
<path d="M298 2472 c-17 -3 -70 -80 -82 -119 -22 -68 -23 -166 -3 -197 9 -15
11 -32 5 -56 -4 -19 -10 -62 -13 -95 -7 -72 -18 -87 -35 -46 -7 17 -19 31 -28
31 -8 0 -12 3 -9 6 15 15 -95 90 -114 78 -13 -8 -1 -106 14 -116 7 -4 9 -8 5
-8 -15 0 60 -119 74 -120 5 0 17 -9 29 -21 11 -11 28 -19 37 -17 13 4 17 -2
18 -21 2 -53 12 -138 24 -186 18 -77 18 -78 29 -115 6 -19 11 -38 11 -42 0
-11 -33 4 -48 21 -11 13 -12 13 -7 1 5 -11 3 -11 -7 1 -26 32 -162 58 -184 36
-9 -9 19 -50 62 -93 53 -52 147 -89 204 -80 22 3 39 3 38 -1 -4 -13 72 -143
84 -143 6 0 9 -3 5 -6 -6 -6 80 -126 95 -132 21 -9 -6 -19 -31 -12 -52 15
-187 -18 -178 -43 2 -6 25 -21 52 -35 35 -19 65 -26 112 -27 34 -1 63 2 63 7
0 5 4 7 9 4 4 -3 17 1 27 9 17 12 23 10 54 -13 19 -14 44 -35 55 -45 11 -10
57 -42 102 -70 46 -29 83 -54 83 -57 0 -3 -8 -7 -17 -8 -49 -5 -98 -28 -126
-60 -17 -19 -17 -20 0 -27 65 -27 187 -5 220 39 17 22 17 22 55 4 21 -10 43
-16 48 -13 5 3 11 1 14 -4 5 -7 26 -14 81 -27 56 -12 57 -15 11 -50 -38 -29
-63 -61 -53 -70 9 -9 67 -12 72 -4 4 6 10 8 15 5 9 -6 49 11 60 24 3 3 14 11
25 17 11 6 25 21 31 32 6 12 13 20 15 18 2 -3 31 -6 63 -8 41 -2 61 1 63 10 3
8 -10 12 -46 13 -28 1 -55 3 -61 4 -5 1 -14 3 -18 4 -4 0 -7 13 -6 28 1 37
-16 103 -28 103 -5 0 -7 4 -4 8 3 5 -11 24 -30 43 -29 28 -36 31 -44 19 -15
-23 -4 -102 19 -143 21 -38 27 -62 14 -54 -9 6 -79 19 -105 20 -10 1 -18 5
-18 9 0 4 -3 7 -7 6 -5 -1 -39 8 -76 21 -61 21 -67 25 -60 44 10 32 6 126 -6
141 -6 7 -9 15 -6 18 2 2 -8 20 -24 39 l-29 34 -12 -30 c-17 -45 -20 -85 -9
-133 10 -48 6 -64 -16 -56 -8 4 -12 10 -9 15 5 8 -9 13 -28 10 -5 0 -8 3 -8 7
0 4 -22 21 -50 37 -27 16 -50 34 -50 39 0 5 -3 7 -6 3 -6 -6 -48 28 -90 73
-20 21 -21 26 -10 40 37 41 42 171 8 236 -17 34 -20 35 -35 19 -10 -9 -15 -21
-12 -26 4 -5 2 -9 -3 -9 -16 0 -32 -59 -32 -119 l0 -56 -40 40 c-21 22 -39 46
-40 53 0 7 -4 10 -10 7 -5 -3 -10 3 -10 13 0 11 -7 26 -17 33 -9 8 -23 28 -30
44 -8 17 -23 45 -33 64 -18 32 -17 67 1 56 11 -7 52 73 44 86 -10 15 -22 2
-28 -30 -6 -28 -30 -46 -48 -35 -15 9 -10 126 6 175 9 24 24 55 34 68 l19 25
11 -40 c13 -48 14 -85 1 -118 -9 -25 3 -46 18 -31 9 8 12 146 4 160 -4 5 -7
16 -9 24 -4 28 -22 35 -43 16 -11 -10 -17 -22 -14 -26 3 -5 1 -9 -5 -9 -16 0
-65 -122 -54 -134 4 -3 1 -6 -5 -6 -10 0 -23 36 -38 102 -2 10 -6 28 -9 41 -3
12 -8 49 -11 81 -3 33 -5 62 -6 65 -2 20 5 30 25 36 12 4 24 8 27 10 3 1 13 5
22 9 10 5 15 12 12 17 -3 5 1 9 9 9 7 0 28 16 45 36 30 33 36 47 33 67 0 4 3
7 8 7 9 0 21 36 26 79 3 21 1 23 -28 17 -18 -4 -34 -11 -35 -16 -2 -6 -8 -8
-13 -4 -5 3 -36 -22 -69 -55 -52 -52 -65 -58 -62 -30 1 4 4 31 7 60 3 30 9 71
14 91 5 20 6 40 3 43 -4 3 0 4 8 0 17 -6 74 80 65 96 -4 5 -2 9 4 9 25 0 31
140 9 200 -9 25 -18 35 -30 32z m15 -51 c18 -72 -10 -212 -53 -255 -19 -19
-19 -19 -30 8 -12 32 -12 76 -1 131 12 57 15 69 21 75 3 3 13 17 23 33 20 32
33 34 40 8z m-237 -393 c39 -31 61 -56 83 -98 24 -46 36 -106 22 -114 -15 -9
-78 50 -108 102 -26 43 -47 132 -33 132 4 0 20 -10 36 -22z m324 -21 c0 -7 -9
-32 -20 -55 -12 -24 -18 -48 -14 -54 4 -6 3 -8 -3 -5 -6 4 -28 -9 -49 -29 -69
-64 -114 -68 -89 -8 7 18 12 34 10 34 -6 0 32 45 60 72 20 20 83 57 98 58 4 0
7 -6 7 -13z m-220 -565 c73 -40 116 -86 102 -109 -5 -8 -29 -4 -81 12 -72 23
-128 63 -153 108 -9 17 -5 18 39 16 27 -2 67 -13 93 -27z m426 -270 c10 -48
10 -68 0 -119 -12 -65 -31 -72 -46 -18 -13 48 -9 115 11 158 15 33 26 26 35
-21z m-97 -185 c70 -24 43 -48 -53 -48 -49 0 -126 22 -126 36 0 24 122 32 179
12z m431 -164 c0 -47 -4 -63 -14 -63 -29 0 -51 117 -31 169 5 12 10 9 25 -14
14 -22 20 -47 20 -92z m315 -52 c20 -40 28 -101 12 -101 -26 0 -78 126 -59
144 8 8 31 -13 47 -43z m-345 -50 c13 -1 13 -3 0 -15 -23 -22 -81 -42 -115
-41 -56 3 -62 5 -62 20 0 8 4 12 9 9 5 -3 15 -1 22 5 16 14 85 29 111 26 11
-2 27 -4 35 -4z m353 -97 c12 -12 -47 -54 -97 -69 -27 -8 -52 -13 -54 -10 -9
9 60 65 92 74 40 12 51 13 59 5z"/>
<path d="M2669 2473 c-1 -5 -1 -11 0 -15 0 -5 -3 -8 -7 -8 -19 0 -22 -192 -4
-198 7 -2 10 -8 7 -13 -8 -12 31 -85 54 -101 22 -16 36 -73 45 -184 2 -29 0
-41 -10 -41 -7 0 -12 3 -11 6 1 3 -4 16 -11 29 -13 22 -42 31 -42 12 0 -5 3
-10 8 -10 11 0 59 -81 67 -112 9 -34 -6 -36 -50 -9 -60 37 -108 99 -130 169
-6 22 -5 23 17 17 12 -4 35 -16 51 -26 39 -28 55 -12 16 17 -37 27 -94 48
-108 40 -11 -7 8 -86 21 -86 5 0 6 -4 3 -10 -7 -12 55 -99 71 -100 7 0 14 -7
17 -14 6 -15 67 -52 67 -41 0 4 7 0 15 -8 10 -10 13 -28 9 -58 -10 -93 -13
-114 -14 -114 -1 0 -3 -7 -5 -15 -1 -8 -8 -35 -15 -60 -7 -25 -13 -50 -14 -57
-3 -18 -16 -29 -17 -15 -1 7 -2 15 -3 20 -1 4 -5 24 -9 45 -5 20 -12 37 -17
37 -6 0 -10 8 -10 18 -1 20 -44 72 -60 72 -28 0 -46 -133 -27 -197 6 -21 11
-40 12 -43 10 -32 28 -61 50 -78 15 -12 21 -23 15 -27 -6 -3 -8 -11 -5 -16 4
-5 2 -9 -2 -9 -5 0 -20 -21 -33 -47 -14 -26 -29 -53 -35 -59 -5 -6 -30 -39
-53 -72 -57 -79 -70 -84 -67 -23 1 26 -2 58 -8 71 -5 14 -11 30 -12 36 -2 6
-11 24 -21 39 l-18 27 -18 -24 c-10 -12 -16 -28 -13 -35 2 -6 -1 -13 -7 -15
-21 -7 -10 -164 12 -178 6 -4 12 -11 13 -16 1 -5 5 -8 8 -7 4 1 5 -6 2 -17 -3
-11 -9 -17 -14 -14 -5 3 -9 -5 -9 -18 0 -17 -3 -19 -9 -9 -5 7 -10 9 -12 4 -2
-6 -33 -31 -69 -58 -36 -26 -64 -51 -63 -56 2 -4 -3 -6 -10 -4 -6 3 -28 -5
-47 -17 -51 -32 -61 -31 -53 0 10 34 10 119 0 155 -6 23 -10 26 -26 17 -32
-16 -64 -96 -62 -152 1 -28 6 -58 11 -68 9 -18 7 -20 -45 -35 -5 -2 -30 -10
-55 -18 -79 -26 -160 -42 -160 -32 0 4 11 21 24 38 23 30 44 96 40 125 -1 6
-2 18 -3 25 -1 7 -4 8 -9 2 -4 -5 -20 -17 -37 -25 -16 -9 -35 -26 -41 -38 -6
-12 -13 -19 -16 -16 -8 7 -42 -84 -42 -111 0 -19 -6 -22 -60 -23 -32 -1 -64
-6 -70 -12 -12 -12 -8 -12 79 -10 56 1 62 -1 75 -24 7 -14 18 -26 23 -26 5 0
22 -9 38 -20 33 -24 123 -38 133 -21 4 6 1 20 -7 32 -14 19 -35 11 -23 -10 3
-5 -7 -7 -22 -5 -45 5 -56 9 -87 29 -51 33 -60 56 -19 49 15 -3 32 -6 38 -7 6
-1 25 -12 43 -25 38 -26 43 -27 43 -6 0 9 -9 18 -20 21 -11 3 -20 10 -20 15 0
5 -4 7 -9 3 -5 -3 -12 -1 -15 4 -7 10 16 21 45 21 10 0 19 4 19 8 0 4 8 8 18
9 17 1 55 10 60 13 1 2 5 3 10 4 4 1 13 5 20 9 6 5 12 6 12 2 0 -3 9 -1 21 5
16 9 24 8 38 -4 38 -34 104 -55 165 -51 61 4 80 13 68 31 -15 21 -69 52 -112
64 -36 10 -41 14 -27 22 10 5 15 13 12 19 -3 5 1 6 9 3 9 -3 16 -2 16 3 0 5 6
10 13 10 14 0 97 57 167 114 44 36 46 36 74 22 16 -8 56 -16 88 -17 48 -2 71
2 112 23 45 23 68 55 41 57 -5 0 -23 6 -40 13 -38 16 -92 20 -127 10 -31 -8
-42 -2 -25 16 52 53 159 209 150 219 -4 3 -2 6 4 6 6 0 15 13 21 28 9 26 13
28 58 26 27 -1 61 4 76 12 15 8 29 13 30 12 6 -6 78 42 78 52 0 6 4 9 9 6 8
-5 42 36 41 49 0 3 6 13 15 22 21 21 15 25 -42 24 -70 -1 -83 -3 -83 -13 0 -5
-4 -7 -9 -3 -9 5 -24 -3 -93 -45 -15 -9 -17 -7 -15 7 1 10 6 24 10 31 5 6 6
16 2 21 -3 5 -1 12 4 15 8 5 21 54 27 101 0 6 4 17 7 25 5 14 16 105 17 140 0
9 15 21 34 28 30 11 79 52 61 52 -4 0 2 8 13 18 35 29 63 92 69 153 4 48 3 59
-10 59 -8 0 -20 -7 -27 -15 -7 -8 -16 -13 -20 -10 -5 3 -17 -6 -28 -20 -11
-13 -22 -22 -25 -19 -3 3 -8 -4 -12 -15 -3 -12 -10 -21 -14 -21 -4 0 -13 -12
-20 -26 -17 -39 -20 -32 -36 86 -3 25 -10 60 -15 78 -5 19 -5 30 0 27 28 -17
30 152 4 212 -10 21 -18 42 -18 46 -1 4 -8 12 -16 17 -8 5 -12 10 -8 10 11 0
-33 50 -44 50 -4 0 -9 -3 -9 -7z m56 -85 c23 -43 30 -69 33 -135 4 -72 2 -84
-13 -89 -36 -14 -77 81 -80 186 -2 44 11 90 25 90 4 0 20 -24 35 -52z m221
-370 c-4 -18 -9 -42 -12 -53 -2 -11 -18 -40 -35 -64 -17 -25 -32 -51 -33 -58
-1 -7 -6 -16 -11 -20 -4 -4 -5 -2 -1 5 10 16 -4 15 -28 -3 -26 -20 -35 -11
-29 27 11 69 69 154 128 186 28 16 28 16 21 -20z m-296 -461 c26 -60 33 -169
12 -189 -11 -11 -17 -8 -32 12 -36 48 -53 137 -38 206 12 55 25 48 58 -29z
m290 -95 c0 -5 -15 -23 -32 -42 -36 -37 -118 -78 -173 -87 -31 -5 -35 -3 -35
15 0 12 16 34 40 53 22 18 37 36 34 40 -3 5 1 7 8 4 7 -3 31 2 53 10 44 16
105 20 105 7z m-521 -289 c12 -27 15 -55 11 -95 -5 -54 -22 -89 -36 -75 -16
16 -30 114 -22 152 17 79 20 80 47 18z m222 -190 c8 -8 3 -16 -22 -28 -30 -16
-64 -18 -171 -12 -26 2 -16 20 22 40 39 20 151 20 171 0z m-547 -86 c6 -46
-20 -140 -37 -134 -18 6 -12 123 8 154 20 30 23 28 29 -20z m-285 -104 c-6
-16 -10 -29 -10 -30 4 -14 -4 -29 -35 -63 -41 -46 -54 -50 -54 -17 0 29 34 86
68 114 36 30 44 29 31 -4z m370 -79 c12 -2 34 -12 48 -21 l25 -17 -22 -8 c-27
-10 -82 -1 -127 19 -69 32 -20 49 76 27z"/>
<path d="M805 1856 c-125 -30 -194 -125 -194 -266 0 -113 53 -200 147 -243 62
-29 198 -30 255 -3 54 26 46 39 -10 14 -56 -25 -152 -27 -204 -5 -45 20 -93
73 -110 124 -8 21 -14 74 -14 118 0 122 34 189 117 231 59 30 138 34 207 9 51
-18 51 -18 51 -5 0 28 -163 45 -245 26z"/>
<path d="M1341 1849 c-7 -21 -147 -336 -203 -457 -10 -24 -17 -49 -15 -55 4
-11 76 133 92 183 8 24 -2 22 117 24 l96 1 47 -107 c44 -101 48 -107 76 -106
16 1 29 4 29 8 0 8 -220 522 -226 529 -2 2 -8 -7 -13 -20z m39 -189 c22 -51
40 -95 40 -97 0 -2 -40 -3 -90 -3 -49 0 -90 3 -90 8 0 19 86 200 92 193 4 -4
26 -49 48 -101z"/>
<path d="M1652 1598 l3 -263 30 0 29 0 1 120 c0 102 2 120 16 123 13 2 115
-115 206 -237 5 -7 66 -10 75 -5 4 3 -1 15 -12 27 -10 12 -52 65 -94 117 l-75
95 32 13 c83 33 117 75 117 146 0 32 -7 45 -39 76 -44 42 -74 50 -204 50 l-87
0 2 -262z m203 232 c33 -12 58 -53 60 -98 4 -90 -39 -133 -138 -135 l-62 -2
-1 115 c0 63 1 120 3 125 4 12 102 9 138 -5z"/>
<path d="M2090 1597 l0 -264 130 0 c72 0 130 4 130 9 0 4 -45 8 -100 8 l-100
0 0 125 0 125 92 0 c50 0 88 3 84 7 -4 5 -44 8 -89 8 l-82 0 -3 113 c-2 101
-1 112 15 113 10 1 55 1 101 1 46 -1 82 3 82 8 0 6 -53 10 -130 10 l-130 0 0
-263z"/>
</g>
</svg>
